<svg height="960" viewBox="0 0 960 960" width="960" xmlns="http://www.w3.org/2000/svg"><g fill="none" fill-rule="evenodd" stroke="#000" stroke-linejoin="round"><path d="m86.3435224 135.964359c.5336665 0 1.0673108.00689 1.6007995.020669l786.7789141 20.320892c16.803442.433999 31.903243 7.524308 42.802182 18.70838 10.898939 11.184071 17.597018 26.461905 17.597018 43.270951v519.18965c0 16.751503-6.653898 31.987963-17.493711 43.164688-10.839814 11.176725-25.865542 18.293716-42.609202 18.806281l-786.7789138 24.085277c-17.1128106.523866-32.8178917-5.938199-44.3757366-16.809434-11.5578449-10.871234-18.9684537-26.151638-19.4923197-43.264448-.0193526-.632178-.0290305-1.264614-.0290305-1.897087v-563.595819c0-17.120828 6.9395863-32.620828 18.1593795-43.840621s26.7197932-18.159379 43.8406205-18.159379z" stroke-width="40"/><g stroke-linecap="round" stroke-width="20"><path d="m148.43661 146.037116c.476819 0 .953616.006558 1.430254.019673l733.379756 20.179157c14.075555.387293 26.717992 6.341933 35.841539 15.719971 9.123548 9.378037 14.728207 22.179473 14.728207 36.260355v519.339971c0 14.029493-5.565245 26.793939-14.635999 36.165335-9.070755 9.371396-21.647019 15.349741-35.669057 15.807034l-733.379755 23.917285c-14.351774.468046-27.534579-4.925424-37.246453-14.023848-9.711873-9.098424-15.9528148-21.901803-16.4208608-36.253577-.0184193-.564794-.0276308-1.12985-.0276308-1.694944v-563.436412c0-14.359403 5.8202986-27.359403 15.2304476-36.769552 9.410149-9.41015 22.410149-15.230448 36.769552-15.230448z"/><path d="m205.645529 243.306204 630.961918 13.578669v370.803099l-630.961918 16.094078z"/></g></g></svg>